{"title":"Bhoot Returns (2012) 720p HDRip x264 AC3 [DDR]","uid":7972739,"size":2374883423,"categoryP":"video","categoryS":"hd___movies","magnet":"?xt=urn:btih:a0130605b33fdb9a1bf2c51539c2c7a8318d9533&amp;dn=Bhoot+Returns+%282012%29+720p+HDRip+x264+AC3+%5BDDR%5D&amp;tr=udp%3A%2F%2Ftracker.openbittorrent.com%3A80&amp;tr=udp%3A%2F%2Fopen.demonii.com%3A1337&amp;tr=udp%3A%2F%2Ftracker.coppersurfer.tk%3A6969&amp;tr=udp%3A%2F%2Fexodus.desync.com%3A6969","seeders":0,"leechers":1,"uploader":"SaM","files":-1,"time":1356901360,"description":"DDR Presents\n\n\nBollywood Movie\n\n\nBhoot Returns (2012)\n\n720p HDRip x264 AC3\n\nComplete name                            : 720phd-bhoot-ddr.mkv\nSource\t\t\t\t\t : 720p HD [DDR]\nRipper\t\t\t\t\t : th3obr0\n\nFormat                                   : Matroska\nFormat version                           : Version 2\nFile size                                : 2.18 GiB\nDuration                                 : 1h 24mn\nOverall bit rate                         : 3 694 Kbps\nEncoded date                             : UTC 2012-12-29 22:42:14\nWriting application                      : mkvmerge v5.7.0 ('The Whirlwind') built on Jul  8 2012 20:08:51\nWriting library                          : libebml v1.2.3 + libmatroska v1.3.0\n\nVideo\nID                                       : 1\nFormat                                   : AVC\nFormat/Info                              : Advanced Video Codec\nFormat profile                           : &lt;a class=&quot;__cf_email__&quot; href=&quot;/cdn-cgi/l/email-protection&quot; data-cfemail=&quot;1058797778505c243e22&quot;&gt;[email&amp;#160;protected]&lt;/a&gt;&lt;script cf-hash='f9e31' type=&quot;text/javascript&quot;&gt;\n/* &lt;![CDATA[ */!function(){try{var t=&quot;currentScript&quot;in document?document.currentScript:function(){for(var t=document.getElementsByTagName(&quot;script&quot;),e=t.length;e--;)if(t[e].getAttribute(&quot;cf-hash&quot;))return t[e]}();if(t&amp;&amp;t.previousSibling){var e,r,n,i,c=t.previousSibling,a=c.getAttribute(&quot;data-cfemail&quot;);if(a){for(e=&quot;&quot;,r=parseInt(a.substr(0,2),16),n=2;a.length-n;n+=2)i=parseInt(a.substr(n,2),16)^r,e+=String.fromCharCode(i);e=document.createTextNode(e),c.parentNode.replaceChild(e,c)}}}catch(u){}}();/* ]]&gt; */&lt;/script&gt;\nFormat settings, CABAC                   : Yes\nFormat settings, ReFrames                : 4 frames\nCodec ID                                 : V_MPEG4/ISO/AVC\nDuration                                 : 1h 24mn\nBit rate                                 : 3 244 Kbps\nWidth                                    : 1 280 pixels\nHeight                                   : 544 pixels\nDisplay aspect ratio                     : 2.35:1\nFrame rate                               : 25.000 fps\nColor space                              : YUV\nChroma subsampling                       : 4:2:0\nBit depth                                : 8 bits\nScan type                                : Progressive\nBits/(Pixel*Frame)                       : 0.186\nStream size                              : 1.87 GiB (86%)\nTitle                                    : Bhoot 720p [DDR]\nWriting library                          : x264 core 129 r2230 1cffe9f\nLanguage                                 : Hindi\nDefault                                  : Yes\nForced                                   : No\n\nAudio\nID                                       : 2\nFormat                                   : AC-3\nFormat/Info                              : Audio Coding 3\nMode extension                           : CM (complete main)\nFormat settings, Endianness              : Big\nCodec ID                                 : A_AC3\nDuration                                 : 1h 24mn\nBit rate mode                            : Constant\nBit rate                                 : 448 Kbps\nChannel(s)                               : 2 channels\nChannel positions                        : Front: L R\nSampling rate                            : 48.0 KHz\nBit depth                                : 16 bits\nCompression mode                         : Lossy\nDelay relative to video                  : 8ms\nStream size                              : 271 MiB (12%)\nTitle                                    : Hindi 2.0 [DDR]\nLanguage                                 : Hindi\nDefault                                  : Yes\nForced                                   : No\n\n &lt;a href=&quot;\nhttp://img707.imageshack.us/img707/1518/30628.png&quot; rel=&quot;nofollow&quot; target=&quot;_NEW&quot;&gt;\nhttp://img707.imageshack.us/img707/1518/30628.png&lt;/a&gt; &lt;a href=&quot;\nhttp://img27.imageshack.us/img27/5355/44425.png&quot; rel=&quot;nofollow&quot; target=&quot;_NEW&quot;&gt;\nhttp://img27.imageshack.us/img27/5355/44425.png&lt;/a&gt; &lt;a href=&quot;\nhttp://img84.imageshack.us/img84/4329/58626.png&quot; rel=&quot;nofollow&quot; target=&quot;_NEW&quot;&gt;\nhttp://img84.imageshack.us/img84/4329/58626.png&lt;/a&gt; &lt;a href=&quot;\nhttp://img38.imageshack.us/img38/4777/28278.png&quot; rel=&quot;nofollow&quot; target=&quot;_NEW&quot;&gt;\nhttp://img38.imageshack.us/img38/4777/28278.png&lt;/a&gt;","torrent":{"xt":"urn:btih:a0130605b33fdb9a1bf2c51539c2c7a8318d9533","amp;dn":"Bhoot+Returns+%282012%29+720p+HDRip+x264+AC3+%5BDDR%5D","amp;tr":["udp%3A%2F%2Ftracker.openbittorrent.com%3A80","udp%3A%2F%2Fopen.demonii.com%3A1337","udp%3A%2F%2Ftracker.coppersurfer.tk%3A6969","udp%3A%2F%2Fexodus.desync.com%3A6969"],"infoHash":"a0130605b33fdb9a1bf2c51539c2c7a8318d9533","infoHashBuffer":{"type":"Buffer","data":[160,19,6,5,179,63,219,154,27,242,197,21,57,194,199,168,49,141,149,51]},"announce":[],"urlList":[]}}